<?xml version="1.0" encoding="UTF-8"?>
<svg id="Layer_1" data-name="Layer 1" xmlns="http://www.w3.org/2000/svg" viewBox="0 0 1920 1080">
  <defs>
    <style>
      .cls-1 {
        fill: #d8d2c2;
      }

      .cls-1, .cls-2, .cls-3 {
        stroke-width: 0px;
      }

      .cls-2 {
        fill: #88903c;
      }

      .cls-3 {
        fill: #401835;
      }
    </style>
  </defs>
  <path class="cls-3" d="M1080.05,540c-89.09,17.1-102.95,30.95-120.05,120.05-17.1-89.09-30.95-102.95-120.05-120.05,89.09-17.1,102.95-30.95,120.05-120.05,17.1,89.09,30.95,102.95,120.05,120.05Z"/>
  <path class="cls-1" d="M1048.24,540c-65.49,12.57-75.68,22.76-88.24,88.24-12.57-65.49-22.76-75.68-88.24-88.24,65.49-12.57,75.68-22.76,88.24-88.24,12.57,65.49,22.76,75.68,88.24,88.24Z"/>
  <g>
    <path class="cls-2" d="M961.03,503.72s-24.5,15.35-.84,36.07c0,0,24-15.85.84-36.07Z"/>
    <path class="cls-2" d="M961.03,539.72s-24.5,15.35-.84,36.07c0,0,24-15.85.84-36.07Z"/>
    <path class="cls-2" d="M995.53,540.28s-15.35-24.5-36.07-.84c0,0,15.85,24,36.07.84Z"/>
    <path class="cls-2" d="M960.53,540.28s-15.35-24.5-36.07-.84c0,0,15.85,24,36.07.84Z"/>
  </g>
  <circle class="cls-1" cx="960" cy="539.75" r="4"/>
</svg>