<svg width="299" height="89" xmlns="http://www.w3.org/2000/svg" xmlns:xlink="http://www.w3.org/1999/xlink" xml:space="preserve" overflow="hidden"><defs><clipPath id="clip0"><rect x="0" y="0" width="299" height="89"/></clipPath></defs><g clip-path="url(#clip0)"><text fill="#401835" font-family="Playfair Display,Playfair Display_MSFontService,sans-serif" font-weight="700" font-size="171" transform="matrix(0.312935 0 0 0.314388 82.7693 56)">St</text><text fill="#401835" font-family="Playfair Display,Playfair Display_MSFontService,sans-serif" font-weight="700" font-size="171" transform="matrix(0.312935 0 0 0.314388 133.434 56)">y</text><text fill="#401835" font-family="Playfair Display,Playfair Display_MSFontService,sans-serif" font-weight="700" font-size="171" transform="matrix(0.312935 0 0 0.314388 159.805 56)">l</text><text fill="#401835" font-family="Playfair Display,Playfair Display_MSFontService,sans-serif" font-weight="700" font-size="171" transform="matrix(0.312935 0 0 0.314388 176.888 56)">T</text><text fill="#401835" font-family="Playfair Display,Playfair Display_MSFontService,sans-serif" font-weight="700" font-size="171" transform="matrix(0.312935 0 0 0.314388 211.752 56)">ar</text><text fill="#401835" font-family="Playfair Display,Playfair Display_MSFontService,sans-serif" font-weight="700" font-size="171" transform="matrix(0.312935 0 0 0.314388 265.029 56)">a</text><text fill="#401835" font-family="Playfair Display,Playfair Display_MSFontService,sans-serif" font-weight="700" font-size="67" transform="matrix(0.312935 0 0 0.314388 156.779 77)">Studio</text><path d="M194.818 168.829C166.939 174.18 162.601 178.514 157.25 206.397 151.899 178.517 147.565 174.18 119.682 168.829 147.562 163.477 151.899 159.143 157.25 131.261 162.601 159.14 166.935 163.477 194.818 168.829Z" fill="#401835" transform="matrix(1 0 0 1.00464 -115.685 -128.757)"/><path d="M184.863 168.829C164.369 172.762 161.18 175.951 157.25 196.442 153.316 175.948 150.128 172.759 129.637 168.829 150.131 164.895 153.32 161.706 157.25 141.215 161.184 161.709 164.372 164.898 184.863 168.829Z" fill="#D8D2C2" transform="matrix(1 0 0 1.00464 -115.685 -128.757)"/><path d="M157.46 157.475C157.46 157.475 149.793 162.279 157.197 168.763 157.197 168.763 164.707 163.803 157.46 157.475Z" fill="#88903C" transform="matrix(1 0 0 1.00464 -115.685 -128.757)"/><path d="M157.46 168.741C157.46 168.741 149.793 173.545 157.197 180.029 157.197 180.029 164.707 175.069 157.46 168.741Z" fill="#88903C" transform="matrix(1 0 0 1.00464 -115.685 -128.757)"/><path d="M168.256 168.916C168.256 168.916 163.452 161.249 156.968 168.653 156.968 168.653 161.928 176.164 168.256 168.916Z" fill="#88903C" transform="matrix(1 0 0 1.00464 -115.685 -128.757)"/><path d="M157.303 168.916C157.303 168.916 152.5 161.249 146.016 168.653 146.016 168.653 150.976 176.164 157.303 168.916Z" fill="#88903C" transform="matrix(1 0 0 1.00464 -115.685 -128.757)"/><path d="M158.389 168.75C158.389 169.442 157.829 170.002 157.137 170.002 156.446 170.002 155.886 169.442 155.886 168.75 155.886 168.059 156.446 167.499 157.137 167.499 157.829 167.499 158.389 168.059 158.389 168.75Z" fill="#D8D2C2" transform="matrix(1 0 0 1.00464 -115.685 -128.757)"/></g></svg>